#N canvas 632 216 355 244 10;
#X obj 156 17 tgl 32 0 empty netbus/connected connected 0 -8 0 10 -262144
-1 -1 1 1;
#X obj 11 17 nbx 12 32 -1e+37 1e+37 0 0 empty netbus/id network-unique-id
0 -8 0 10 -262144 -1 -1 830552 256;
#X msg 215 196 \; pd-netbus.pd vis 1;
#N canvas 22 58 450 300 net-syncing 0;
#X text 16 36 faders;
#X obj 69 114 netsync test-toggle \$0/test-toggle \$0/test-toggle_r
;
#X text 17 113 toggles;
#X obj 69 36 netsync pos \$0/pos \$0/pos_r;
#X obj 69 56 netsync pos2 \$0/pos2 \$0/pos2_r;
#X obj 69 76 netsync pos3 \$0/pos3 \$0/pos3_r;
#X obj 69 134 netsync test-toggle2 \$0/test-toggle2 \$0/test-toggle2_r
;
#X obj 69 154 netsync test-toggle3 \$0/test-toggle3 \$0/test-toggle3_r
;
#X obj 69 193 netro timer-1 180;
#X restore 13 198 pd net-syncing;
#X obj 11 59 vsl 32 128 0 127 0 0 \$0/pos \$0/pos_r empty 0 -9 0 10
-262144 -1 -1 0 0;
#X obj 51 59 vsl 32 128 0 127 0 0 \$0/pos2 \$0/pos2_r empty 0 -9 0
10 -262144 -1 -1 0 0;
#X obj 91 59 vsl 32 128 0 127 0 0 \$0/pos3 \$0/pos3_r empty 0 -9 0
10 -262144 -1 -1 0 0;
#X text 111 196 <- guts;
#X obj 131 57 tgl 32 0 \$0/test-toggle \$0/test-toggle_r empty 17 7
0 10 -262144 -1 -1 0 1;
#X obj 131 97 tgl 32 0 \$0/test-toggle2 \$0/test-toggle2_r empty 17
7 0 10 -262144 -1 -1 0 1;
#X obj 131 137 tgl 32 0 \$0/test-toggle3 \$0/test-toggle3_r empty 17
7 0 10 -262144 -1 -1 0 1;
#X obj 184 76 tgl 32 0 netbus/debug empty print-netbus 0 -8 0 10 -262144
-1 -1 0 1;
#X obj 266 77 nbx 5 32 0 320 0 0 timer-1/bpm timer-1/bpm_r bpm 0 -8
0 10 -262144 -1 -1 0 256;
#N canvas 119 306 450 300 bonk 0;
#X obj -513 176 line~;
#X obj -584 178 osc~ 440;
#X obj -530 243 dac~;
#X obj -529 219 *~;
#X obj -513 59 mod 4;
#X obj -513 81 == 0;
#X msg -573 154 660;
#X obj -513 103 sel 1 0;
#X obj -513 35 r timer-1/tick;
#X msg -584 132 220;
#X msg -513 151 1 \, 0 100;
#X connect 0 0 3 1;
#X connect 1 0 3 0;
#X connect 3 0 2 0;
#X connect 3 0 2 1;
#X connect 4 0 5 0;
#X connect 5 0 7 0;
#X connect 6 0 1 0;
#X connect 7 0 6 0;
#X connect 7 0 10 0;
#X connect 7 1 9 0;
#X connect 7 1 10 0;
#X connect 8 0 4 0;
#X connect 9 0 1 0;
#X connect 10 0 0 0;
#X restore 13 219 pd bonk;
#X obj 184 130 tgl 32 0 netro/debug empty print-netro 0 -8 0 10 -262144
-1 -1 0 1;
#X obj 266 131 nbx 5 32 -1e+37 1e+37 0 0 empty timer-1/tick tick 0
-8 0 10 -262144 -1 -1 175 256;
