#N canvas 138 72 970 647 10;
#X obj 18 95 loadbang;
#X obj 18 117 t b b;
#X text 209 139 normal LAN wide broadcast;
#X text 183 558 android ad-hoc friendly broadcast;
#X obj 18 581 t f f;
#X obj 88 581 t f f;
#X obj 97 533 spigot 0;
#X obj 28 532 spigot 0;
#X text 272 162 special android-tether broadcast;
#X obj 166 364 uid;
#X obj 166 340 loadbang;
#X obj 97 317 list prepend;
#X obj 97 251 t a b;
#X obj 166 273 f;
#X obj 196 273 + 1;
#X obj 97 408 list prepend;
#X text 194 365 unique network id for this device;
#X text 233 287 unique id for each message from this device;
#X obj 97 185 r \$1/send;
#X obj 18 623 s \$1/connected;
#X obj 193 408 s \$1/id;
#X obj 166 295 t f f;
#X obj 193 316 s \$1/message-id;
#X obj 97 460 list prepend send;
#X obj 97 505 t a a;
#X obj 575 362 t f f;
#X obj 602 383 !=;
#X obj 602 405 sel 1;
#X obj 575 156 list trim;
#X obj 575 288 list split 1;
#X obj 617 362 r \$1/id;
#X obj 602 427 list;
#X obj 594 264 print \$1/raw;
#X obj 602 471 s \$1/receive;
#X obj 575 572 s \$1/receive/me;
#X obj 575 177 t a a a;
#X obj 614 199 s \$1/receive/raw;
#X obj 594 242 spigot 0;
#X obj 639 220 r \$1/debug;
#X text 38 60 send: \$1/id \$1/receive \$1/receive/me ... also: \$1/message-id
\$1/receive/raw;
#X obj 609 314 list split 1;
#X text 581 337 msg-id;
#X text 38 43 receive: \$1/send ... also: \$1/debug;
#X obj 166 385 t f f;
#X obj 97 482 list trim;
#X obj 575 384 ==;
#X obj 575 506 sel 1;
#X obj 575 528 list;
#X obj 602 449 list trim;
#X obj 575 550 list trim;
#X obj 18 602 pipe 1;
#X text 18 11 i am the network bus singleton for shunting messages
into the UDP broadcast channel.;
#X text 573 32 receive data from the network;
#X obj 162 185 r \$1/connected;
#X msg 162 229 connected;
#X text 263 200 as soon as we connect let everyone know;
#X obj 750 546 loadbang;
#X obj 750 568 print netbus-singleton instance;
#X obj 88 559 netsend -u -b;
#X obj 18 559 netsend -u -b;
#X msg 88 162 connect 192.168.43.255 232342;
#X msg 18 139 connect 255.255.255.255 232342;
#X obj 575 80 oscparse;
#X obj 97 435 oscformat netro;
#X obj 575 102 route netro;
#X obj 575 57 netreceive -u -b 232342;
#X obj 162 207 sel 0;
#X connect 0 0 1 0;
#X connect 1 0 61 0;
#X connect 1 1 60 0;
#X connect 4 0 50 0;
#X connect 4 1 7 1;
#X connect 5 0 50 0;
#X connect 5 1 6 1;
#X connect 6 0 58 0;
#X connect 7 0 59 0;
#X connect 9 0 43 0;
#X connect 10 0 9 0;
#X connect 11 0 15 0;
#X connect 12 0 11 0;
#X connect 12 1 13 0;
#X connect 13 0 14 0;
#X connect 13 0 21 0;
#X connect 14 0 13 1;
#X connect 15 0 63 0;
#X connect 18 0 12 0;
#X connect 21 0 11 1;
#X connect 21 1 22 0;
#X connect 23 0 44 0;
#X connect 24 0 7 0;
#X connect 24 1 6 0;
#X connect 25 0 45 0;
#X connect 25 1 26 0;
#X connect 26 0 27 0;
#X connect 27 0 31 0;
#X connect 28 0 35 0;
#X connect 29 0 25 0;
#X connect 29 1 40 0;
#X connect 30 0 26 1;
#X connect 30 0 45 1;
#X connect 31 0 48 0;
#X connect 35 0 29 0;
#X connect 35 1 37 0;
#X connect 35 2 36 0;
#X connect 37 0 32 0;
#X connect 38 0 37 1;
#X connect 40 1 31 1;
#X connect 40 1 47 1;
#X connect 43 0 15 1;
#X connect 43 1 20 0;
#X connect 44 0 24 0;
#X connect 45 0 46 0;
#X connect 46 0 47 0;
#X connect 47 0 49 0;
#X connect 48 0 33 0;
#X connect 49 0 34 0;
#X connect 50 0 19 0;
#X connect 53 0 66 0;
#X connect 54 0 12 0;
#X connect 56 0 57 0;
#X connect 58 0 5 0;
#X connect 59 0 4 0;
#X connect 60 0 58 0;
#X connect 61 0 59 0;
#X connect 62 0 64 0;
#X connect 63 0 23 0;
#X connect 64 0 28 0;
#X connect 65 0 62 0;
#X connect 66 0 54 0;
