#N canvas 317 48 970 674 10;
#X obj 18 95 loadbang;
#X obj 18 117 t b b;
#X text 209 139 normal LAN wide broadcast;
#X text 203 574 android ad-hoc friendly broadcast;
#X obj 18 597 t f f;
#X obj 108 597 t f f;
#X obj 117 549 spigot 0;
#X obj 28 548 spigot 0;
#X text 292 162 special android-tether broadcast;
#X obj 220 362 uid;
#X obj 220 340 loadbang;
#X obj 151 317 list prepend;
#X obj 151 251 t a b;
#X obj 220 273 f;
#X obj 250 273 + 1;
#X obj 151 408 list prepend;
#X text 248 363 unique network id for this device;
#X text 287 287 unique id for each message from this device;
#X obj 117 205 r \$1/send;
#X obj 18 639 s \$1/connected;
#X obj 247 408 s \$1/id;
#X obj 220 295 t f f;
#X obj 247 316 s \$1/message-id;
#X obj 117 476 list prepend send;
#X obj 117 521 t a a;
#X obj 755 342 t f f;
#X obj 782 363 !=;
#X obj 782 385 sel 1;
#X obj 755 122 list trim;
#X obj 755 268 list split 1;
#X obj 797 342 r \$1/id;
#X obj 782 407 list;
#X obj 774 230 print \$1/raw;
#X obj 782 451 s \$1/receive;
#X obj 755 612 s \$1/receive/me;
#X obj 755 143 t a a a;
#X obj 794 165 s \$1/receive/raw;
#X obj 774 208 spigot 0;
#X obj 819 186 r \$1/debug;
#X text 38 60 send: \$1/id \$1/receive \$1/receive/me ... also: \$1/message-id
\$1/receive/raw;
#X obj 789 294 list split 1;
#X text 38 43 receive: \$1/send ... also: \$1/debug;
#X obj 220 385 t f f;
#X obj 117 498 list trim;
#X obj 755 364 ==;
#X obj 755 486 sel 1;
#X obj 755 508 list;
#X obj 782 429 list trim;
#X obj 755 590 list trim;
#X obj 18 618 pipe 1;
#X text 18 11 i am the network bus singleton for shunting messages
into the UDP broadcast channel.;
#X text 753 12 receive data from the network;
#X obj 286 463 r \$1/connected;
#X text 387 478 as soon as we connect let everyone know;
#X obj 532 9 loadbang;
#X obj 108 575 netsend -u -b;
#X obj 18 575 netsend -u -b;
#X obj 286 485 sel 0;
#N canvas 528 86 450 501 parse-osc-message 0;
#X obj 10 13 inlet;
#N canvas 407 153 450 300 count-address-components 0;
#X obj 15 8 inlet;
#X obj 15 250 outlet;
#X obj 330 251 outlet;
#X obj 129 72 t l;
#X obj 49 94 sel 47;
#X obj 49 116 f;
#X obj 79 116 + 1;
#X msg 66 51 0;
#X obj 49 72 list split 1;
#X obj 15 30 t a b a b;
#X obj 32 138 f;
#X connect 0 0 9 0;
#X connect 3 0 8 0;
#X connect 4 0 5 0;
#X connect 5 0 6 0;
#X connect 5 0 10 1;
#X connect 6 0 5 1;
#X connect 7 0 5 1;
#X connect 8 0 4 0;
#X connect 8 1 3 0;
#X connect 9 0 1 0;
#X connect 9 1 10 0;
#X connect 9 2 8 0;
#X connect 9 3 7 0;
#X connect 10 0 2 0;
#X restore 10 35 pd count-address-components;
#X obj 10 154 list split;
#X obj 10 449 outlet;
#X obj 10 101 route syncjams;
#X obj 10 79 list trim;
#X obj 38 177 list split 2;
#X obj 38 199 t a a;
#X obj 65 221 list length;
#X obj 65 243 == 2;
#X obj 10 424 spigot;
#X obj 10 346 list append;
#N canvas 311 167 450 441 re-slash 0;
#X obj 8 9 inlet;
#X obj 8 416 outlet;
#X obj 35 53 t a b;
#X obj 35 75 list split 1;
#X obj 117 75 t l;
#X obj 8 394 symbol;
#X obj 8 31 t b a;
#X obj 35 98 list;
#X msg 107 173 symbol /\$1\$2;
#X msg 107 146 list \$1 \$2;
#X obj 35 121 route symbol;
#X msg 35 146 symbol /\$1;
#X connect 0 0 6 0;
#X connect 2 0 3 0;
#X connect 2 1 7 1;
#X connect 3 0 7 0;
#X connect 3 1 4 0;
#X connect 4 0 3 0;
#X connect 5 0 1 0;
#X connect 6 0 5 0;
#X connect 6 1 2 0;
#X connect 7 0 10 0;
#X connect 8 0 7 1;
#X connect 8 0 5 1;
#X connect 9 0 8 0;
#X connect 10 0 11 0;
#X connect 10 1 9 0;
#X connect 11 0 7 1;
#X connect 11 0 5 1;
#X restore 10 287 pd re-slash;
#X obj 10 368 list prepend;
#X obj 10 57 oscparse;
#X connect 0 0 1 0;
#X connect 1 0 14 0;
#X connect 1 1 2 1;
#X connect 2 0 12 0;
#X connect 2 1 6 0;
#X connect 4 0 2 0;
#X connect 5 0 4 0;
#X connect 6 0 7 0;
#X connect 6 1 11 1;
#X connect 7 0 13 1;
#X connect 7 1 8 0;
#X connect 8 0 9 0;
#X connect 9 0 10 1;
#X connect 10 0 3 0;
#X connect 11 0 13 0;
#X connect 12 0 11 0;
#X connect 13 0 10 0;
#X connect 14 0 5 0;
#X restore 755 80 pd parse-osc-message;
#N canvas 686 225 450 300 oscformat 0;
#X obj 10 5 inlet;
#X obj 10 120 outlet;
#X obj 10 29 list split 1;
#X msg 47 74 set /syncjams\$1;
#X obj 10 74 list;
#X obj 10 51 t b a;
#X obj 10 97 oscformat -b ii;
#X connect 0 0 2 0;
#X connect 2 0 5 0;
#X connect 2 1 4 1;
#X connect 3 0 6 0;
#X connect 4 0 6 0;
#X connect 5 0 4 0;
#X connect 5 1 3 0;
#X connect 6 0 1 0;
#X restore 117 453 pd oscformat;
#X obj 755 530 list prepend;
#X text 663 270 network-id ->;
#X text 739 315 msg-id -^;
#X obj 532 31 print netbus instance \$0;
#X obj 117 227 list split 1;
#X msg 286 507 /connect connected;
#X obj 117 431 list append;
#X obj 286 529 s \$1/send;
#X obj 199 453 r \$0/resend;
#X obj 755 59 t a a;
#N canvas 511 104 462 626 triage-seen-messages 0;
#X obj 13 8 inlet;
#X obj 13 592 outlet;
#X text 69 8 check if we have seen this message from this user id before
;
#X obj 48 494 text set \$0/messages;
#X obj 13 102 text search \$0/messages;
#X obj 281 90 text define \$0/messages;
#X obj 13 124 sel -1;
#X obj 13 571 list;
#X obj 13 30 t a a;
#X obj 13 52 list split 2;
#X obj 48 324 list;
#X obj 13 74 t a a;
#X obj 113 170 list;
#X obj 113 234 pack f f;
#X obj 113 192 unpack f f;
#X obj 113 364 text set \$0/messages;
#X msg 87 461 1e+06;
#X msg 113 256 \$1 \$2;
#X obj 87 417 text search \$0/messages;
#X obj 87 439 sel -1;
#X obj 48 346 t a a;
#X obj 113 321 t b a;
#X msg 87 393 list NULL;
#X msg 113 343 list NULL;
#X obj 113 300 sel -1;
#X obj 113 278 text search \$0/messages 0 < 1;
#X obj 170 213 - 50;
#X text 211 202 messages with an id less than 50 ago get replaced (NULL)
, f 28;
#X obj 281 46 loadbang;
#X msg 281 68 clear;
#X text 59 591 any message that makes it through is seen for the first
time;
#X obj 96 521 inlet;
#X obj 75 545 list;
#X obj 75 567 s \$0/resend;
#X obj 13 146 t b b b;
#X obj 13 518 t b b;
#X connect 0 0 8 0;
#X connect 4 0 6 0;
#X connect 6 0 34 0;
#X connect 7 0 1 0;
#X connect 8 0 9 0;
#X connect 8 1 7 1;
#X connect 9 0 11 0;
#X connect 10 0 20 0;
#X connect 11 0 4 0;
#X connect 11 1 12 1;
#X connect 11 1 10 1;
#X connect 12 0 14 0;
#X connect 13 0 17 0;
#X connect 14 0 13 0;
#X connect 14 1 26 0;
#X connect 16 0 3 1;
#X connect 17 0 25 0;
#X connect 18 0 19 0;
#X connect 19 0 16 0;
#X connect 19 1 3 1;
#X connect 20 0 3 0;
#X connect 20 1 22 0;
#X connect 21 0 23 0;
#X connect 21 1 15 1;
#X connect 22 0 18 0;
#X connect 23 0 15 0;
#X connect 24 1 21 0;
#X connect 25 0 24 0;
#X connect 26 0 13 1;
#X connect 28 0 29 0;
#X connect 29 0 5 0;
#X connect 31 0 32 1;
#X connect 32 0 33 0;
#X connect 34 0 35 0;
#X connect 34 1 10 0;
#X connect 34 2 12 0;
#X connect 35 0 7 0;
#X connect 35 1 32 0;
#X restore 755 101 pd triage-seen-messages;
#X msg 108 162 connect 192.168.43.255 23232;
#X msg 18 139 connect 255.255.255.255 23232;
#X obj 755 37 netreceive -u -b 23232;
#X connect 0 0 1 0;
#X connect 1 0 72 0;
#X connect 1 1 71 0;
#X connect 4 0 49 0;
#X connect 4 1 7 1;
#X connect 5 0 49 0;
#X connect 5 1 6 1;
#X connect 6 0 55 0;
#X connect 7 0 56 0;
#X connect 9 0 42 0;
#X connect 10 0 9 0;
#X connect 11 0 15 0;
#X connect 12 0 11 0;
#X connect 12 1 13 0;
#X connect 13 0 14 0;
#X connect 13 0 21 0;
#X connect 14 0 13 1;
#X connect 15 0 66 1;
#X connect 18 0 64 0;
#X connect 21 0 11 1;
#X connect 21 1 22 0;
#X connect 23 0 43 0;
#X connect 24 0 7 0;
#X connect 24 1 6 0;
#X connect 25 0 44 0;
#X connect 25 1 26 0;
#X connect 26 0 27 0;
#X connect 27 0 31 0;
#X connect 28 0 35 0;
#X connect 29 0 25 0;
#X connect 29 1 40 0;
#X connect 30 0 26 1;
#X connect 30 0 44 1;
#X connect 31 0 47 0;
#X connect 35 0 29 0;
#X connect 35 1 37 0;
#X connect 35 2 36 0;
#X connect 37 0 32 0;
#X connect 38 0 37 1;
#X connect 40 1 31 1;
#X connect 40 1 46 1;
#X connect 42 0 15 1;
#X connect 42 1 20 0;
#X connect 43 0 24 0;
#X connect 44 0 45 0;
#X connect 45 0 46 0;
#X connect 46 0 60 0;
#X connect 47 0 33 0;
#X connect 48 0 34 0;
#X connect 49 0 19 0;
#X connect 52 0 57 0;
#X connect 54 0 63 0;
#X connect 55 0 5 0;
#X connect 56 0 4 0;
#X connect 57 0 65 0;
#X connect 58 0 70 0;
#X connect 59 0 23 0;
#X connect 60 0 48 0;
#X connect 64 0 66 0;
#X connect 64 1 12 0;
#X connect 65 0 67 0;
#X connect 66 0 59 0;
#X connect 68 0 23 0;
#X connect 69 0 58 0;
#X connect 69 1 70 1;
#X connect 70 0 28 0;
#X connect 71 0 55 0;
#X connect 72 0 56 0;
#X connect 73 0 69 0;
