#N canvas 2 48 450 666 10;
#N canvas 2 421 236 173 \$0-container 0;
#X restore 217 58 pd \$0-container;
#X obj 146 400 f \$0;
#X obj 146 420 makefilename pd-%d-container;
#X obj 37 58 loadbang;
#X obj 37 351 select 0;
#X obj 37 197 t f f;
#X obj 64 218 + 1;
#X obj 146 441 t s s;
#X msg 176 463 \; \$1 clear;
#X obj 37 523 symbol;
#X obj 64 238 value NETBUS/singleton;
#X obj 37 171 value NETBUS/singleton;
#X obj 37 88 t b b;
#X obj 37 593 print;
#X msg 37 545 \; \$1 obj 10 10 netbus netbus \; pd-netbus.pd loadbang
\;;
#X text 35 25 based on frank barknecht's sssad/singleton.pd;
#X connect 1 0 2 0;
#X connect 2 0 7 0;
#X connect 3 0 12 0;
#X connect 4 0 9 0;
#X connect 5 0 4 0;
#X connect 5 1 6 0;
#X connect 6 0 10 0;
#X connect 7 0 9 1;
#X connect 7 1 8 0;
#X connect 9 0 14 0;
#X connect 11 0 5 0;
#X connect 12 0 11 0;
#X connect 12 1 1 0;
#X connect 14 0 13 0;
