#N canvas 213 95 831 588 10;
#X obj 190 435 s netbus/send;
#X obj 711 11 netbus-singleton;
#X obj 12 188 metro;
#X obj 12 556 outlet tick;
#X obj 720 73 inlet bpm;
#X text 501 247 subdivide the beat;
#X obj 12 260 f;
#X obj 12 325 / 12;
#X obj 12 347 int;
#X obj 12 369 change;
#X obj 41 260 + 1;
#X obj 188 231 >;
#X obj 467 272 expr 60000 / $f1;
#X obj 467 316 s \$0/rate;
#X obj 44 166 r \$0/rate;
#X obj 188 253 sel 1;
#X obj 413 554 outlet sub-tick;
#X obj 12 282 t f f;
#X obj 39 531 s \$1/tick;
#X obj 413 503 t f f;
#X obj 440 528 s \$1/sub-tick;
#X obj 39 303 s \$0/sub-tick;
#X obj 413 477 r \$0/sub-tick;
#X obj 12 391 s \$0/tick;
#X obj 12 475 r \$0/tick;
#X obj 12 501 t f f;
#X obj 203 209 r \$0/tick;
#X obj 188 297 s \$0/set-tick;
#X obj 12 100 r \$0/set-tick;
#X obj 12 122 t b f;
#X obj 39 144 * 12;
#X obj 288 153 s \$0/reset;
#X obj 44 211 r \$0/reset;
#X msg 44 233 0;
#X text 188 360 messages back to the network;
#X obj 190 383 r \$0/tick;
#X obj 467 294 change;
#X text 186 25 messages from the network;
#X obj 467 250 * 12;
#X obj 440 78 \$2;
#X obj 440 56 loadbang;
#X obj 440 100 sel 0;
#X msg 440 122 1;
#X text 196 190 earlier than expected high tick wins;
#X obj 12 21 loadbang;
#X msg 12 43 0;
#X obj 12 65 s \$0/set-tick;
#X obj 188 46 r netbus/receive/raw;
#X obj 467 221 r \$0/bpm;
#X obj 720 120 r \$1/bpm;
#X obj 602 554 outlet bpm;
#X obj 188 68 list split 2;
#X obj 222 92 list trim;
#X obj 188 152 t f f;
#X obj 188 275 f;
#X obj 479 372 debug-print netro/debug \$0/rate;
#X obj 479 392 debug-print netro/debug \$0/set-tick;
#X obj 602 524 r \$1/bpm;
#X obj 720 164 s \$0/bpm;
#X obj 720 95 s \$1/bpm;
#X obj 720 142 moses 0;
#X obj 467 188 s \$1/bpm_r;
#X obj 440 144 t f f;
#X msg 467 166 set \$1;
#X obj 591 43 netsync /\$1/netro/bpm \$1/bpm \$1/bpm_r;
#X obj 188 130 route /\$1/netro/tick /\$1/netro/reset;
#X obj 190 408 list prepend /\$1/netro/tick;
#X connect 2 0 6 0;
#X connect 4 0 59 0;
#X connect 6 0 10 0;
#X connect 6 0 17 0;
#X connect 7 0 8 0;
#X connect 8 0 9 0;
#X connect 9 0 23 0;
#X connect 10 0 6 1;
#X connect 11 0 15 0;
#X connect 12 0 36 0;
#X connect 14 0 2 1;
#X connect 15 0 54 0;
#X connect 17 0 7 0;
#X connect 17 1 21 0;
#X connect 19 0 16 0;
#X connect 19 1 20 0;
#X connect 22 0 19 0;
#X connect 24 0 25 0;
#X connect 25 0 3 0;
#X connect 25 1 18 0;
#X connect 26 0 11 1;
#X connect 28 0 29 0;
#X connect 29 0 2 0;
#X connect 29 1 30 0;
#X connect 30 0 6 1;
#X connect 32 0 33 0;
#X connect 33 0 6 1;
#X connect 35 0 66 0;
#X connect 36 0 13 0;
#X connect 38 0 12 0;
#X connect 39 0 41 0;
#X connect 40 0 39 0;
#X connect 41 0 42 0;
#X connect 41 1 62 0;
#X connect 42 0 62 0;
#X connect 44 0 45 0;
#X connect 45 0 46 0;
#X connect 47 0 51 0;
#X connect 48 0 38 0;
#X connect 49 0 60 0;
#X connect 51 1 52 0;
#X connect 52 0 65 0;
#X connect 53 0 11 0;
#X connect 53 1 54 1;
#X connect 54 0 27 0;
#X connect 57 0 50 0;
#X connect 60 1 58 0;
#X connect 62 0 38 0;
#X connect 62 1 63 0;
#X connect 63 0 61 0;
#X connect 65 0 53 0;
#X connect 65 1 31 0;
#X connect 66 0 0 0;
