#N canvas 366 227 406 135 10;
#X obj 12 73 s netbus/send;
#X obj 269 8 r netbus/receive;
#X obj 294 109 netbus-singleton;
#X obj 12 28 throttle-net-bound;
#X obj 45 7 inlet;
#X obj 269 52 t a a;
#X obj 12 51 list prepend \$1;
#X obj 269 30 route \$1;
#X obj 12 7 r \$2;
#X obj 269 73 s \$3;
#X obj 142 29 r netbus/receive/me;
#X obj 142 51 route \$1;
#X obj 142 73 outlet from-me;
#X obj 301 73 outlet from-others;
#X connect 1 0 7 0;
#X connect 3 0 6 0;
#X connect 4 0 3 0;
#X connect 5 0 9 0;
#X connect 5 1 13 0;
#X connect 6 0 0 0;
#X connect 7 0 5 0;
#X connect 8 0 3 0;
#X connect 10 0 11 0;
#X connect 11 0 12 0;
