#N canvas 360 197 435 360 10;
#X obj 12 163 s netbus/send;
#X obj 269 38 r netbus/receive;
#X obj 325 332 netbus-singleton;
#X obj 12 116 throttle-net-bound;
#X obj 45 47 inlet;
#X obj 269 128 t a a;
#X obj 12 139 list prepend \$1;
#X obj 269 60 route \$1;
#X obj 12 47 r \$2;
#X obj 269 149 s \$3;
#X obj 131 288 r netbus/receive/me;
#X obj 131 310 route \$1;
#X obj 131 332 outlet from-me;
#X obj 301 149 outlet from-others;
#X obj 269 80 t b a b;
#X msg 308 102 0;
#X msg 269 102 1;
#X obj 12 94 spigot 1;
#X text 267 14 messages from the network;
#X text 81 91 <- prevent infinite loop;
#X text 10 13 messages to the network;
#X obj 308 126 s \$1/lock;
#X obj 57 70 r \$1/lock;
#X connect 1 0 7 0;
#X connect 3 0 6 0;
#X connect 4 0 17 0;
#X connect 5 0 9 0;
#X connect 5 1 13 0;
#X connect 6 0 0 0;
#X connect 7 0 14 0;
#X connect 8 0 17 0;
#X connect 10 0 11 0;
#X connect 11 0 12 0;
#X connect 14 0 16 0;
#X connect 14 1 5 0;
#X connect 14 2 15 0;
#X connect 15 0 21 0;
#X connect 16 0 21 0;
#X connect 17 0 3 0;
#X connect 22 0 17 1;
