#N canvas 72 223 420 319 10;
#X obj 66 9 inlet;
#X text 134 11 after the first message \, start throttling;
#X obj 81 298 outlet;
#X obj 81 222 spigot 1;
#X obj 152 181 spigot 0;
#X msg 124 116 1;
#X obj 152 203 t b b;
#X msg 179 227 0;
#X obj 30 102 t b b;
#X msg 57 124 0;
#X msg 30 172 1;
#X obj 30 244 s \$0/throttle;
#X obj 193 30 r \$0/throttle;
#X obj 152 158 metro 30;
#X obj 66 194 r \$0/throttle;
#X obj 301 35 loadbang;
#X obj 301 57 \$1;
#X obj 301 79 sel 0;
#X obj 301 101 30;
#X obj 301 124 t f f;
#X obj 301 146 + 3;
#X obj 30 150 delay 33;
#X obj 119 262 list;
#X obj 66 31 t b a a b b;
#X obj 169 95 f;
#X obj 199 95 + 1;
#X obj 169 121 sel 2;
#X msg 193 74 0;
#X obj 193 52 sel 1;
#X connect 0 0 23 0;
#X connect 3 0 2 0;
#X connect 4 0 6 0;
#X connect 5 0 4 1;
#X connect 6 0 22 0;
#X connect 6 1 7 0;
#X connect 7 0 4 1;
#X connect 8 0 21 0;
#X connect 8 1 9 0;
#X connect 9 0 11 0;
#X connect 10 0 11 0;
#X connect 12 0 28 0;
#X connect 13 0 4 0;
#X connect 14 0 3 1;
#X connect 15 0 16 0;
#X connect 16 0 17 0;
#X connect 17 0 18 0;
#X connect 17 1 19 0;
#X connect 18 0 19 0;
#X connect 19 0 20 0;
#X connect 19 1 13 1;
#X connect 20 0 21 1;
#X connect 21 0 10 0;
#X connect 22 0 2 0;
#X connect 23 0 8 0;
#X connect 23 1 3 0;
#X connect 23 2 22 1;
#X connect 23 3 5 0;
#X connect 23 4 24 0;
#X connect 24 0 25 0;
#X connect 24 0 26 0;
#X connect 25 0 24 1;
#X connect 26 0 13 0;
#X connect 27 0 24 1;
#X connect 28 0 27 0;
