#N canvas 153 110 609 477 10;
#X obj 199 169 adc~;
#X obj 200 196 snapshot~;
#X obj 168 394 random 1e+06;
#X msg 168 347 seed \$1;
#X obj 200 218 * 10000;
#X obj 168 369 t b a;
#X obj 122 77 delay 100;
#X obj 35 187 * 10000;
#X obj 122 99 t b b;
#X obj 168 302 +;
#X text 9 139 startup time entropy;
#X text 196 149 audio entropy;
#X text 352 48 network connection time entropy;
#X obj 363 94 netsend 1;
#X obj 363 116 sel 1;
#X obj 361 234 * 10000;
#X obj 122 42 t b b;
#X obj 168 324 +;
#X obj 361 261 print entropy-net;
#X obj 204 250 print entropy-adc;
#X obj 35 240 print entropy-startup;
#X msg 363 71 disconnect \, connect 127.0.0.1 13142;
#X obj 361 212 realtime;
#X obj 35 165 realtime;
#X msg 402 116 disconnect;
#X obj 122 21 inlet;
#X obj 168 416 outlet;
#X connect 0 0 1 0;
#X connect 0 1 1 0;
#X connect 1 0 4 0;
#X connect 2 0 26 0;
#X connect 3 0 5 0;
#X connect 4 0 9 1;
#X connect 4 0 19 0;
#X connect 5 0 2 0;
#X connect 5 1 2 0;
#X connect 6 0 8 0;
#X connect 7 0 9 0;
#X connect 7 0 20 0;
#X connect 8 0 23 1;
#X connect 8 1 1 0;
#X connect 9 0 17 0;
#X connect 13 0 14 0;
#X connect 14 0 24 0;
#X connect 14 0 22 1;
#X connect 15 0 17 1;
#X connect 15 0 18 0;
#X connect 16 0 6 0;
#X connect 16 1 21 0;
#X connect 17 0 3 0;
#X connect 21 0 13 0;
#X connect 22 0 15 0;
#X connect 23 0 7 0;
#X connect 24 0 13 0;
#X connect 25 0 16 0;
