#N canvas 776 1277 732 421 10;
#X msg 178 86 list 12 432 3 0 2343;
#X obj 205 217 t l;
#X obj 122 217 list split 1;
#X obj 122 240 list prepend;
#X obj 209 240 t l;
#X obj 94 263 list;
#X obj 94 285 list split 1;
#X obj 181 285 t l;
#X obj 94 193 t b a b b;
#X obj 67 340 f;
#X obj 67 173 t b a;
#X obj 249 280 f;
#X obj 94 313 expr ((((33 * $f2) % 65535) ^ ($f1 % 65535)) % 65535)
;
#X msg 181 112 0.223 4234 0.242435 0.76653 3 23.35 656 43;
#X obj 67 56 inlet;
#X obj 67 371 outlet;
#X floatatom 122 373 10 0 0 0 - - -, f 10;
#X text 185 62 test values;
#X text 23 9 hacked version of djb2 checksum that works on systems
like Pd where floating points don't always have exact precision above
pow(2 \, 23).;
#X msg 249 257 5381;
#X text 323 85 28632;
#X text 447 113 37187;
#X text 619 159 36600;
#X msg 461 21 2;
#X obj 461 43 pow 23;
#X obj 461 65 - 2;
#X msg 305 158 list 122112 4321 123 11 14 4 43 \$1 3 432 545;
#X connect 0 0 10 0;
#X connect 1 0 2 0;
#X connect 2 0 3 0;
#X connect 2 1 1 0;
#X connect 3 0 4 0;
#X connect 3 0 5 1;
#X connect 4 0 3 1;
#X connect 5 0 6 0;
#X connect 6 0 12 0;
#X connect 6 1 7 0;
#X connect 7 0 6 0;
#X connect 8 0 5 0;
#X connect 8 1 2 0;
#X connect 8 2 3 1;
#X connect 8 3 19 0;
#X connect 9 0 15 0;
#X connect 9 0 16 0;
#X connect 10 0 9 0;
#X connect 10 1 8 0;
#X connect 11 0 12 1;
#X connect 12 0 11 0;
#X connect 12 0 9 1;
#X connect 13 0 10 0;
#X connect 14 0 10 0;
#X connect 19 0 11 0;
#X connect 23 0 24 0;
#X connect 24 0 25 0;
#X connect 25 0 26 0;
#X connect 26 0 10 0;
