#N canvas 2 48 450 300 10;
#X obj 169 40 ==;
#X obj 169 62 == 0;
#X obj 14 11 inlet;
#X obj 14 103 spigot 0;
#X obj 14 125 outlet;
#X obj 312 8 r \$1/node-id;
#X obj 169 8 r \$1/syncjams/node-id;
#X connect 0 0 1 0;
#X connect 1 0 3 1;
#X connect 2 0 3 0;
#X connect 3 0 4 0;
#X connect 5 0 0 1;
#X connect 6 0 0 0;
