#N canvas 226 229 644 520 10;
#X text 8 8 Estimate the latency between a delayed version of a signal
and the original using cross-correlation.;
#X obj 95 313 +~;
#X obj 278 410 vd~ \$0/delayed;
#X obj 106 341 delwrite~ \$0/delayed 500;
#X floatatom 95 456 5 0 0 0 - - -, f 5;
#X obj 95 475 print latency;
#N canvas 0 50 450 250 (subpatch) 0;
#X array sample 62079 float 2;
#X coords 0 1 62079 -1 200 140 1 0 0;
#X restore 429 371 graph;
#X obj 429 341 soundfiler;
#X msg 429 318 read -resize ~/voice.wav sample;
#X floatatom 316 342 5 0 1000 0 - - -, f 5;
#X obj 266 467 dac~;
#X obj 95 434 latency-estimator-x-correlation;
#X obj 316 361 / 10;
#X obj 53 171 noise~;
#X obj 114 372 dac~;
#X floatatom 278 339 5 0 0 0 - - -, f 5;
#X obj 171 93 metro 50;
#X obj 171 227 osc~;
#X obj 298 227 osc~;
#X obj 53 193 *~ 0.1;
#X obj 298 155 random 32;
#X obj 171 155 random 32;
#X obj 298 177 + 60;
#X obj 171 177 + 60;
#X obj 171 199 mtof;
#X obj 298 199 mtof;
#X obj 171 73 tgl 15 0 empty empty empty 17 7 0 10 -262144 -1 -1 1
1;
#X obj 298 249 *~;
#X obj 171 249 *~;
#X obj 376 224 line~;
#X obj 376 156 random 50;
#X obj 376 178 + 20;
#X msg 376 200 1 \, 0 \$1;
#X obj 171 284 *~;
#X obj 236 224 line~;
#X obj 236 156 random 50;
#X obj 236 178 + 20;
#X msg 236 200 1 \, 0 \$1;
#X obj 216 72 + 50;
#X obj 216 50 random 20;
#X obj 171 115 t b b b b b;
#X connect 1 0 3 0;
#X connect 1 0 11 0;
#X connect 2 0 11 1;
#X connect 4 0 5 0;
#X connect 8 0 7 0;
#X connect 9 0 12 0;
#X connect 12 0 2 0;
#X connect 13 0 19 0;
#X connect 15 0 2 0;
#X connect 16 0 40 0;
#X connect 17 0 28 0;
#X connect 18 0 27 0;
#X connect 19 0 1 0;
#X connect 20 0 22 0;
#X connect 21 0 23 0;
#X connect 22 0 25 0;
#X connect 23 0 24 0;
#X connect 24 0 17 0;
#X connect 25 0 18 0;
#X connect 26 0 16 0;
#X connect 27 0 33 1;
#X connect 28 0 33 0;
#X connect 29 0 27 1;
#X connect 30 0 31 0;
#X connect 31 0 32 0;
#X connect 32 0 29 0;
#X connect 33 0 1 0;
#X connect 34 0 28 1;
#X connect 35 0 36 0;
#X connect 36 0 37 0;
#X connect 37 0 34 0;
#X connect 38 0 16 1;
#X connect 39 0 38 0;
#X connect 40 0 21 0;
#X connect 40 1 35 0;
#X connect 40 2 20 0;
#X connect 40 3 30 0;
#X connect 40 4 39 0;
