#N canvas 673 162 765 589 10;
#X obj 5 13 inlet;
#X obj 131 13 inlet reset;
#X obj 6 277 outlet;
#X obj 128 191 list split 1;
#X obj 209 191 t l;
#X msg 131 35 bang;
#X obj 128 153 list;
#X obj 208 347 t l;
#X obj 145 267 sel 1;
#X obj 145 244 <;
#X obj 128 347 list append;
#X obj 128 213 t f f f f;
#X obj 6 254 list;
#X obj 145 319 list;
#X obj 128 371 s \$0/sorted;
#X obj 27 229 r \$0/sorted;
#X obj 145 289 t b b;
#X obj 113 99 t b b f f b;
#X obj 149 129 r \$0/sorted;
#X obj 131 57 t b b;
#X obj 337 88 random 100;
#X obj 337 66 until;
#X msg 447 150 20 26 42 55 58 61 65 83 91;
#X msg 239 61 60;
#X msg 546 110 65 70;
#X msg 516 58 10;
#X msg 603 61 bang;
#X msg 617 90 49 60 60 72;
#X msg 480 58 200;
#X msg 337 44 5;
#X obj 548 190 s \$0/sorted;
#X obj 43 13 r \$0/test;
#X text 498 22 tests;
#X obj 297 129 s \$0/test;
#X floatatom 287 36 5 0 0 0 - - -, f 5;
#X connect 0 0 17 0;
#X connect 1 0 5 0;
#X connect 3 0 11 0;
#X connect 3 1 4 0;
#X connect 4 0 3 0;
#X connect 5 0 19 0;
#X connect 6 0 3 0;
#X connect 7 0 10 1;
#X connect 8 0 16 0;
#X connect 9 0 8 0;
#X connect 10 0 7 0;
#X connect 10 0 14 0;
#X connect 11 0 10 0;
#X connect 11 1 9 0;
#X connect 12 0 2 0;
#X connect 13 0 10 0;
#X connect 15 0 12 1;
#X connect 16 0 13 1;
#X connect 16 1 13 0;
#X connect 17 0 16 0;
#X connect 17 1 6 0;
#X connect 17 2 9 1;
#X connect 17 3 13 1;
#X connect 17 4 10 1;
#X connect 18 0 6 1;
#X connect 19 0 12 0;
#X connect 19 1 6 1;
#X connect 20 0 33 0;
#X connect 21 0 20 0;
#X connect 22 0 30 0;
#X connect 23 0 33 0;
#X connect 24 0 30 0;
#X connect 25 0 30 0;
#X connect 26 0 30 0;
#X connect 28 0 30 0;
#X connect 29 0 21 0;
#X connect 31 0 17 0;
#X connect 34 0 33 0;
