#N canvas 490 246 450 398 10;
#X obj 16 14 inlet;
#X obj 47 155 s \$1/in;
#X obj 35 268 r \$1/out;
#X obj 35 312 spigot 0;
#X obj 35 334 outlet;
#X msg 79 58 1;
#X msg 16 228 0;
#X obj 35 290 route \$0;
#X obj 63 133 s \$1/in;
#X obj 63 90 \$0;
#X msg 63 112 prefix \$1;
#X obj 16 36 t b b a b b;
#X msg 31 177 prefix;
#X obj 31 199 s \$1/in;
#X connect 0 0 11 0;
#X connect 2 0 7 0;
#X connect 3 0 4 0;
#X connect 5 0 3 1;
#X connect 6 0 3 1;
#X connect 7 0 3 0;
#X connect 9 0 10 0;
#X connect 10 0 8 0;
#X connect 11 0 6 0;
#X connect 11 1 12 0;
#X connect 11 2 1 0;
#X connect 11 3 9 0;
#X connect 11 4 5 0;
#X connect 12 0 13 0;
