#N canvas 493 261 450 300 10;
#X obj 16 14 inlet;
#X obj 16 36 t b a b;
#X obj 35 119 s \$1/in;
#X obj 35 148 r \$1/out;
#X obj 35 192 spigot 0;
#X obj 35 214 outlet;
#X msg 55 58 1;
#X msg 16 58 0;
#X obj 35 97 list prepend \$0;
#X obj 35 170 route \$0;
#X connect 0 0 1 0;
#X connect 1 0 7 0;
#X connect 1 1 8 0;
#X connect 1 2 6 0;
#X connect 3 0 9 0;
#X connect 4 0 5 0;
#X connect 6 0 4 1;
#X connect 7 0 4 1;
#X connect 8 0 2 0;
#X connect 9 0 4 0;
