#N canvas 735 405 450 300 10;
#X msg 16 71 get /test/one;
#X obj 16 263 print 2;
#X msg 16 16 set /test/one hello i am an entry;
#X msg 16 218 get /test/two;
#X obj 363 16 map \$0/test;
#X obj 16 95 map-api \$0/test;
#X msg 16 158 set /test/two 120 zing boom;
#X msg 187 72 del /test/one;
#X obj 16 38 map-api \$0/test;
#X obj 16 241 map-api \$0/test;
#X obj 16 180 map-api \$0/test;
#X obj 187 94 map-api \$0/test;
#X obj 16 117 print /test/one;
#X msg 181 218 each;
#X obj 181 262 print each;
#X obj 181 240 map-api \$0/test;
#X obj 330 198 until;
#X obj 330 220 f;
#X obj 360 220 + 1;
#X msg 330 175 1000;
#X obj 330 264 map-api \$0/test;
#X msg 330 242 set hello/\$1 \$1;
#X connect 0 0 5 0;
#X connect 2 0 8 0;
#X connect 3 0 9 0;
#X connect 5 0 12 0;
#X connect 6 0 10 0;
#X connect 7 0 11 0;
#X connect 9 0 1 0;
#X connect 13 0 15 0;
#X connect 15 0 14 0;
#X connect 16 0 17 0;
#X connect 17 0 18 0;
#X connect 17 0 21 0;
#X connect 18 0 17 1;
#X connect 19 0 16 0;
#X connect 21 0 20 0;
