#N canvas 266 235 450 300 10;
#X msg 285 36 \; pd-netbus.pd vis 1;
#X floatatom 21 17 10 0 0 0 id netbus/id -, f 10;
#X obj 21 38 tgl 15 0 empty netbus/connected connected 17 7 0 10 -262144
-1 -1 0 1;
#X obj 285 14 netbus-singleton netbus;
#X obj 15 145 r netbus/receive;
#X obj 15 167 list prepend set;
#X msg 15 257;
#X obj 15 189 list trim;
#X msg 25 233 set;
#X obj 282 98 s netbus/send;
#X obj 25 211 loadbang;
#X obj 143 167 list prepend set;
#X msg 143 257;
#X obj 143 189 list trim;
#X msg 153 233 set;
#X obj 153 211 loadbang;
#X msg 282 76 /mytest/receive ping;
#X obj 143 145 r netbus/receive/raw;
#X obj 323 167 list prepend set;
#X msg 323 257;
#X obj 323 189 list trim;
#X msg 333 233 set;
#X obj 333 211 loadbang;
#X obj 323 145 r netbus/receive/me;
#X connect 4 0 5 0;
#X connect 5 0 7 0;
#X connect 7 0 6 0;
#X connect 8 0 6 0;
#X connect 10 0 8 0;
#X connect 11 0 13 0;
#X connect 13 0 12 0;
#X connect 14 0 12 0;
#X connect 15 0 14 0;
#X connect 16 0 9 0;
#X connect 17 0 11 0;
#X connect 18 0 20 0;
#X connect 20 0 19 0;
#X connect 21 0 19 0;
#X connect 22 0 21 0;
#X connect 23 0 18 0;
