#N canvas 349 142 451 503 10;
#X obj 12 223 s netbus/send;
#X obj 269 38 r netbus/receive;
#X obj 33 358 netbus-singleton;
#X obj 45 47 inlet;
#X obj 12 139 list prepend \$1;
#X obj 12 47 r \$2;
#X obj 269 466 s \$3;
#X obj 131 418 r netbus/receive/me;
#X obj 131 440 route \$1;
#X obj 131 462 outlet from-me;
#X obj 308 104 outlet from-others;
#X obj 12 94 spigot 1;
#X text 267 14 messages from the network;
#X text 81 91 <- prevent infinite loop;
#X text 10 13 messages to the network;
#X obj 57 70 r \$1/lock;
#X obj 12 116 throttle-net-bound;
#X obj 269 83 t a a a;
#X obj 288 217 t b a b;
#X msg 327 239 0;
#X msg 288 239 1;
#X obj 327 263 s \$1/lock;
#X obj 269 422 list prepend set;
#X obj 269 444 list trim;
#X obj 307 285 s \$2;
#X obj 269 60 route \$1 connected;
#X obj 27 188 list;
#X obj 12 161 t a a;
#X obj 321 83 t b;
#X obj 282 310 loadbang;
#X obj 269 400 spigot;
#X obj 288 195 spigot;
#X obj 282 354 sel 0;
#X msg 309 376 1;
#X obj 282 332 list prepend \$3;
#X obj 308 126 loadbang;
#X obj 308 170 sel 0;
#X msg 335 192 1;
#X obj 308 148 list prepend \$2;
#X connect 1 0 25 0;
#X connect 3 0 16 0;
#X connect 4 0 27 0;
#X connect 5 0 11 0;
#X connect 7 0 8 0;
#X connect 8 0 9 0;
#X connect 11 0 16 0;
#X connect 15 0 11 1;
#X connect 16 0 4 0;
#X connect 17 0 30 0;
#X connect 17 1 31 0;
#X connect 17 2 10 0;
#X connect 18 0 20 0;
#X connect 18 1 24 0;
#X connect 18 2 19 0;
#X connect 19 0 21 0;
#X connect 20 0 21 0;
#X connect 22 0 23 0;
#X connect 23 0 6 0;
#X connect 25 0 17 0;
#X connect 25 1 28 0;
#X connect 26 0 0 0;
#X connect 27 0 0 0;
#X connect 27 1 26 1;
#X connect 28 0 26 0;
#X connect 29 0 34 0;
#X connect 30 0 22 0;
#X connect 31 0 18 0;
#X connect 32 1 33 0;
#X connect 33 0 30 1;
#X connect 34 0 32 0;
#X connect 35 0 38 0;
#X connect 36 1 37 0;
#X connect 37 0 31 1;
#X connect 38 0 36 0;
