#N canvas 2 48 450 300 10;
#X obj 8 9 inlet;
#X obj 8 256 outlet;
#X obj 35 53 t a b;
#X obj 35 75 list split 1;
#X obj 117 75 t l;
#X obj 8 234 symbol;
#X obj 8 31 t b a;
#X obj 35 98 list;
#X msg 107 173 symbol /\$1\$2;
#X msg 107 146 list \$1 \$2;
#X obj 35 121 route symbol;
#X msg 35 146 symbol /\$1;
#X connect 0 0 6 0;
#X connect 2 0 3 0;
#X connect 2 1 7 1;
#X connect 3 0 7 0;
#X connect 3 1 4 0;
#X connect 4 0 3 0;
#X connect 5 0 1 0;
#X connect 6 0 5 0;
#X connect 6 1 2 0;
#X connect 7 0 10 0;
#X connect 8 0 7 1;
#X connect 8 0 5 1;
#X connect 9 0 8 0;
#X connect 10 0 11 0;
#X connect 10 1 9 0;
#X connect 11 0 7 1;
#X connect 11 0 5 1;
