#N canvas 794 48 450 300 10;
#N canvas 372 56 556 575 latency-calculator 0;
#X obj 332 39 bang~;
#X obj 332 86 realtime;
#X obj 332 61 t b b;
#X obj 406 226 +;
#X obj 332 108 t f f b f;
#X obj 349 153 > 2;
#X obj 349 175 sel 1;
#X obj 406 204 0;
#X obj 384 262 f;
#X obj 349 197 t b b;
#X msg 349 219 0;
#X obj 248 93 switch~;
#X obj 15 191 t b b;
#X obj 332 128 s \$0/realtime;
#X obj 15 295 \$0;
#X msg 15 317 \; \$1/on 0 \;;
#X obj 42 212 \$0;
#X msg 42 234 \; \$1/on 1 \;;
#X obj 384 306 int;
#X obj 369 332 f;
#X obj 334 262 r \$0/on;
#X obj 334 284 sel 0;
#X obj 15 9 loadbang;
#X obj 15 31 t b b;
#X msg 42 53 0;
#X obj 42 75 s \$0/on;
#X obj 15 149 t b b;
#X obj 369 385 t f f;
#X obj 369 433 outlet;
#X obj 396 408 print latency calculated;
#X obj 42 170 print latency calculation start;
#X obj 15 125 metro 30000;
#X obj 15 273 delay 500;
#X obj 178 457 r \$0/realtime;
#X obj 178 479 print;
#X obj 248 9 r \$0/on;
#X obj 275 61 sel 1;
#X obj 248 31 t f f;
#N canvas 2 50 450 300 average 0;
#X obj 9 13 inlet;
#X obj 28 112 tabwrite \$0/ring;
#X obj 48 56 f;
#X obj 78 56 + 1;
#X obj 9 35 t b f b;
#X obj 9 138 array sum \$0/ring;
#X obj 9 182 outlet;
#X obj 48 78 mod 32;
#X obj 9 160 / 32;
#X obj 215 28 array define \$0/ring 32;
#X connect 0 0 4 0;
#X connect 2 0 3 0;
#X connect 2 0 7 0;
#X connect 3 0 2 1;
#X connect 4 0 5 0;
#X connect 4 1 1 0;
#X connect 4 2 2 0;
#X connect 5 0 8 0;
#X connect 7 0 1 1;
#X connect 8 0 6 0;
#X restore 384 284 pd average 16;
#X obj 15 103 delay 500;
#X obj 369 354 * 2;
#X connect 0 0 2 0;
#X connect 1 0 4 0;
#X connect 2 0 1 0;
#X connect 2 1 1 1;
#X connect 3 0 7 1;
#X connect 3 0 8 1;
#X connect 4 0 13 0;
#X connect 4 1 5 0;
#X connect 4 2 7 0;
#X connect 4 3 3 1;
#X connect 5 0 6 0;
#X connect 6 0 9 0;
#X connect 7 0 3 0;
#X connect 8 0 38 0;
#X connect 9 0 10 0;
#X connect 9 1 8 0;
#X connect 10 0 7 0;
#X connect 12 0 32 0;
#X connect 12 1 16 0;
#X connect 14 0 15 0;
#X connect 16 0 17 0;
#X connect 18 0 19 1;
#X connect 19 0 40 0;
#X connect 20 0 21 0;
#X connect 21 0 19 0;
#X connect 22 0 23 0;
#X connect 23 0 39 0;
#X connect 23 1 24 0;
#X connect 24 0 25 0;
#X connect 26 0 12 0;
#X connect 26 1 30 0;
#X connect 27 0 28 0;
#X connect 27 1 29 0;
#X connect 31 0 26 0;
#X connect 32 0 14 0;
#X connect 33 0 34 0;
#X connect 35 0 37 0;
#X connect 36 0 1 0;
#X connect 37 0 11 0;
#X connect 37 1 36 0;
#X connect 38 0 18 0;
#X connect 39 0 31 0;
#X connect 40 0 27 0;
#X restore 88 112 pd latency-calculator;
#X obj 13 14 inlet;
#X obj 13 259 outlet;
#X obj 13 36 route tick state;
#N canvas 573 70 450 300 get-bpm 0;
#X obj 16 11 inlet;
#X obj 16 33 t a a;
#X obj 385 267 outlet;
#X obj 11 269 outlet;
#X obj 16 95 list split 1;
#X obj 50 117 list trim;
#X obj 50 139 route /BPM;
#X obj 50 161 expr 60000 / $f1;
#X connect 0 0 1 0;
#X connect 1 0 4 0;
#X connect 1 1 2 0;
#X connect 4 1 5 0;
#X connect 5 0 6 0;
#X connect 6 0 7 0;
#X connect 7 0 3 0;
#X restore 59 58 pd get-bpm;
#X obj 13 172 list prepend tick;
#X obj 13 234 list trim;
#N canvas 345 212 450 398 compensate 0;
#X obj 14 11 inlet;
#X obj 105 11 inlet;
#X obj 195 13 inlet;
#X obj 14 342 outlet;
#X obj 14 320 pipe 0;
#X obj 195 58 - 0;
#X obj 195 35 t b f;
#X obj 105 217 int;
#X obj 249 152 print forward latency delay;
#X obj 14 298 + 0;
#X obj 195 80 t f f;
#X obj 222 129 t f f;
#X obj 105 33 t b f f f;
#X obj 222 107 mod;
#X obj 105 271 print latency beats infront;
#X obj 105 165 * -1;
#X obj 105 187 + 2;
#X obj 105 143 / 1;
#X connect 0 0 9 0;
#X connect 1 0 12 0;
#X connect 2 0 6 0;
#X connect 4 0 3 0;
#X connect 5 0 10 0;
#X connect 6 0 5 0;
#X connect 6 1 5 1;
#X connect 7 0 14 0;
#X connect 7 0 9 1;
#X connect 9 0 4 0;
#X connect 10 0 17 0;
#X connect 10 1 13 0;
#X connect 11 0 4 1;
#X connect 11 1 8 0;
#X connect 12 0 17 0;
#X connect 12 1 17 1;
#X connect 12 2 5 0;
#X connect 12 3 13 1;
#X connect 13 0 11 0;
#X connect 15 0 16 0;
#X connect 16 0 7 0;
#X connect 17 0 15 0;
#X restore 13 144 pd compensate;
#X floatatom 131 85 5 0 0 0 - - -, f 5;
#X msg 190 87 1;
#X obj 126 172 list prepend state;
#X connect 0 0 7 2;
#X connect 1 0 3 0;
#X connect 3 0 7 0;
#X connect 3 1 4 0;
#X connect 3 2 10 0;
#X connect 4 0 7 1;
#X connect 4 1 10 0;
#X connect 5 0 6 0;
#X connect 6 0 2 0;
#X connect 7 0 5 0;
#X connect 8 0 7 2;
#X connect 9 0 7 2;
#X connect 10 0 6 0;
