#N canvas 559 111 450 384 10;
#X obj 13 14 inlet;
#X obj 40 349 outlet;
#X obj 40 327 list trim;
#N canvas 727 580 450 398 compensate 0;
#X obj 14 342 outlet;
#X obj 14 11 inlet sub-tick;
#X obj 135 11 inlet latency-ms;
#X obj 279 10 inlet BPM;
#X obj 279 32 * 12;
#X obj 279 54 expr 60000 / $f1;
#X obj 279 146 t b f;
#X obj 288 215 t f f;
#X obj 135 215 t f f;
#X obj 315 238 print latency delay;
#X obj 162 238 print latency sub-ticks;
#X obj 154 86 print got latency;
#X msg 351 11 180;
#X obj 14 298 + 0;
#X obj 14 320 pipe 0;
#X obj 279 76 t f f;
#X obj 306 120 print tick length;
#X obj 135 33 t f f b;
#X obj 306 98 f;
#X obj 135 180 expr (1 * ($f1 != 0)) + int($f1 / $f2) \; ($f2 * ($f1
!= 0)) - (1.0 * $f1 % $f2);
#X connect 1 0 13 0;
#X connect 2 0 17 0;
#X connect 3 0 4 0;
#X connect 4 0 5 0;
#X connect 5 0 15 0;
#X connect 6 0 19 0;
#X connect 6 1 19 1;
#X connect 7 0 14 1;
#X connect 8 0 13 1;
#X connect 12 0 4 0;
#X connect 13 0 14 0;
#X connect 14 0 0 0;
#X connect 15 0 6 0;
#X connect 15 1 18 0;
#X connect 17 0 19 0;
#X connect 17 2 18 0;
#X connect 19 0 8 0;
#X connect 19 1 7 0;
#X restore 13 173 pd compensate;
#X obj 50 59 inlet;
#X obj 124 58 syncjams-state /BPM;
#X obj 13 36 route sub-tick tick;
#X obj 40 305 list prepend sub-tick;
#X text 138 35 <- remove the old tick and subtick;
#X obj 13 195 t f f;
#X obj 13 215 / 12;
#X obj 13 237 int;
#X obj 13 259 change;
#X obj 13 281 list prepend tick;
#N canvas 2 50 450 300 default 0;
#X obj 9 8 inlet;
#X obj 9 266 outlet;
#X obj 34 82 loadbang;
#X obj 34 104 \$1;
#X obj 34 126 sel 0;
#X connect 0 0 1 0;
#X connect 2 0 3 0;
#X connect 3 0 4 0;
#X connect 4 1 1 0;
#X restore 50 81 pd default;
#X connect 0 0 6 0;
#X connect 2 0 1 0;
#X connect 3 0 9 0;
#X connect 4 0 14 0;
#X connect 5 0 1 0;
#X connect 5 1 3 2;
#X connect 6 0 3 0;
#X connect 6 2 5 0;
#X connect 7 0 2 0;
#X connect 9 0 10 0;
#X connect 9 1 7 0;
#X connect 10 0 11 0;
#X connect 11 0 12 0;
#X connect 12 0 13 0;
#X connect 13 0 2 0;
#X connect 14 0 3 1;
