#N canvas 387 270 450 300 10;
#X obj 11 10 inlet;
#X obj 11 52 route state;
#X obj 45 127 route \$1;
#X obj 11 247 outlet;
#X obj 11 31 t a a;
#X obj 11 203 list;
#X msg 11 181 bang;
#X obj 65 247 outlet;
#X obj 11 74 list split 1;
#X obj 45 102 list trim;
#X obj 11 225 list trim;
#X connect 0 0 4 0;
#X connect 1 0 8 0;
#X connect 1 1 6 0;
#X connect 2 0 7 0;
#X connect 2 1 6 0;
#X connect 4 0 1 0;
#X connect 4 1 5 1;
#X connect 5 0 10 0;
#X connect 6 0 5 0;
#X connect 8 1 9 0;
#X connect 9 0 2 0;
#X connect 10 0 3 0;
