#N canvas 1025 1223 450 499 10;
#X obj 182 314 qlist;
#X obj 10 9 inlet;
#X obj 182 200 list prepend 1;
#X obj 10 31 list prepend 0;
#X obj 10 75 route 0 1;
#X obj 10 53 list trim;
#X obj 10 471 outlet;
#X obj 295 134 loadbang;
#X obj 295 156 \$1;
#X obj 295 178 sel 0;
#X msg 266 357 0;
#X msg 209 429 clear;
#X msg 29 337 1;
#X obj 35 98 t b a;
#X obj 35 120 spigot 1;
#X obj 193 286 r \$0/control;
#X obj 209 451 s \$0/control;
#X obj 29 389 s \$0/s;
#X obj 266 379 s \$0/s;
#X obj 91 9 r \$0/s;
#X obj 182 244 list trim;
#X obj 182 178 list prepend \$0/r;
#X obj 22 442 r \$0/r;
#X obj 182 222 list prepend add;
#X obj 80 98 r \$0/sx;
#X msg 35 164 0;
#X obj 35 186 s \$0/sx;
#X obj 209 337 t b b b;
#X msg 228 383 1;
#X obj 228 405 s \$0/sx;
#X obj 10 314 t a b b;
#X obj 73 337 delay 1;
#X msg 73 359 0;
#X obj 35 142 t b b b;
#X msg 80 163 stop;
#X connect 0 1 27 0;
#X connect 1 0 3 0;
#X connect 2 0 23 0;
#X connect 3 0 5 0;
#X connect 4 0 30 0;
#X connect 4 1 13 0;
#X connect 5 0 4 0;
#X connect 7 0 8 0;
#X connect 8 0 9 0;
#X connect 9 1 2 1;
#X connect 9 1 31 1;
#X connect 10 0 18 0;
#X connect 11 0 16 0;
#X connect 12 0 17 0;
#X connect 13 0 14 0;
#X connect 13 1 21 0;
#X connect 14 0 33 0;
#X connect 15 0 0 0;
#X connect 19 0 3 1;
#X connect 20 0 0 0;
#X connect 21 0 2 0;
#X connect 22 0 6 0;
#X connect 23 0 20 0;
#X connect 24 0 14 1;
#X connect 25 0 26 0;
#X connect 27 0 11 0;
#X connect 27 1 28 0;
#X connect 27 2 10 0;
#X connect 28 0 29 0;
#X connect 30 0 6 0;
#X connect 30 1 12 0;
#X connect 30 2 31 0;
#X connect 31 0 32 0;
#X connect 32 0 17 0;
#X connect 33 0 25 0;
#X connect 33 1 0 0;
#X connect 33 2 34 0;
#X connect 34 0 31 0;
