#N canvas 808 233 450 334 10;
#X obj 51 11 inlet;
#X obj 51 113 t f f;
#X obj 88 218 list append;
#X obj 35 196 int;
#X obj 88 196 + 48;
#X obj 162 218 t l;
#X obj 35 265 list;
#X obj 35 287 list tosymbol;
#X obj 51 83 t f b;
#X msg 91 113 0;
#X obj 35 174 / 10;
#X obj 88 174 mod 10;
#X msg 35 240 bang;
#X obj 35 218 moses 1;
#X obj 35 309 outlet;
#X connect 0 0 8 0;
#X connect 1 0 10 0;
#X connect 1 1 11 0;
#X connect 2 0 5 0;
#X connect 2 0 6 1;
#X connect 3 0 13 0;
#X connect 4 0 2 0;
#X connect 5 0 2 1;
#X connect 6 0 7 0;
#X connect 7 0 14 0;
#X connect 8 0 1 0;
#X connect 8 1 9 0;
#X connect 9 0 2 1;
#X connect 10 0 3 0;
#X connect 11 0 4 0;
#X connect 12 0 6 0;
#X connect 13 0 12 0;
#X connect 13 1 1 0;
