#N canvas 780 1186 450 300 10;
#X msg 23 53 hello;
#X obj 23 144 print;
#X text 140 97 <- last message;
#X text 20 12 Throttle incoming messages to space them out in time.
args: throttle-time, f 54;
#N canvas 226 1128 450 300 counter 0;
#X obj 23 75 t a b;
#X obj 50 95 f;
#X obj 76 95 + 1;
#X obj 23 123 list prepend;
#X obj 23 145 t a a;
#X obj 50 167 list prepend set;
#X obj 50 189 list trim;
#X obj 23 48 inlet;
#X obj 50 211 outlet;
#X obj 23 237 outlet;
#X connect 0 0 3 0;
#X connect 0 1 1 0;
#X connect 1 0 2 0;
#X connect 1 0 3 1;
#X connect 2 0 1 1;
#X connect 3 0 4 0;
#X connect 4 0 9 0;
#X connect 4 1 5 0;
#X connect 5 0 6 0;
#X connect 6 0 8 0;
#X connect 7 0 0 0;
#X restore 23 75 pd counter;
#X obj 23 122 syncjams-message-throttle 1000;
#X msg 80 97;
#X connect 0 0 4 0;
#X connect 4 0 5 0;
#X connect 4 1 6 0;
#X connect 5 0 1 0;
