#N canvas 471 266 464 502 10;
#X obj 157 448 s \$3;
#X obj 50 141 r \$1/r;
#X obj 10 117 s \$1;
#X obj 10 73 list prepend set-state;
#X obj 10 7 r \$2;
#X obj 10 51 list prepend \$2;
#X obj 50 193 route;
#X obj 50 164 route state node-id;
#X obj 111 275 route \$2;
#X text 49 212 ^ ignore my own gui updates;
#X obj 77 231 list split 1;
#X obj 111 253 list trim;
#X obj 130 382 t a a;
#X obj 157 404 list prepend set;
#X obj 130 473 s \$2;
#X obj 111 297 t b a b;
#X obj 150 350 s \$0/lock;
#X text 268 406 <- change the slider position;
#X text 172 474 <- receive the value;
#X msg 150 328 0;
#X obj 70 350 s \$0/lock;
#X msg 70 328 1;
#X obj 10 29 spigot 1;
#X obj 55 7 r \$0/lock;
#X text 150 141 <- incoming;
#X text 139 47 <- outgoing;
#X text 225 337 <- lock a re-send;
#X obj 157 426 list trim;
#X floatatom 130 192 10 0 0 0 - - -, f 10;
#X obj 42 117 print syncjams-gui-connector;
#X obj 10 95 t a a;
#X connect 1 0 7 0;
#X connect 3 0 30 0;
#X connect 4 0 22 0;
#X connect 5 0 3 0;
#X connect 6 1 10 0;
#X connect 7 0 6 0;
#X connect 7 1 6 1;
#X connect 7 1 28 0;
#X connect 8 0 15 0;
#X connect 10 1 11 0;
#X connect 11 0 8 0;
#X connect 12 0 14 0;
#X connect 12 1 13 0;
#X connect 13 0 27 0;
#X connect 15 0 21 0;
#X connect 15 1 12 0;
#X connect 15 2 19 0;
#X connect 19 0 16 0;
#X connect 21 0 20 0;
#X connect 22 0 5 0;
#X connect 23 0 22 1;
#X connect 27 0 0 0;
#X connect 30 0 2 0;
