#N canvas 812 105 450 300 10;
#N canvas 382 106 556 575 latency-calculator 0;
#X obj 282 25 bang~;
#X obj 282 72 realtime;
#X obj 282 47 t b b;
#X obj 356 212 +;
#X obj 282 94 t f f b f;
#X obj 299 139 > 2;
#X obj 299 161 sel 1;
#X obj 356 190 0;
#X obj 334 248 f;
#X obj 299 183 t b b;
#X msg 299 205 0;
#X obj 488 42 switch~;
#X obj 15 191 t b b;
#X obj 282 114 s \$0/realtime;
#X obj 488 17 r \$0/on;
#X obj 15 295 \$0;
#X msg 15 317 \; \$1/on 0 \;;
#X obj 42 212 \$0;
#X msg 42 234 \; \$1/on 1 \;;
#X obj 334 292 int;
#X obj 15 273 delay 200;
#X obj 319 318 f;
#X obj 284 248 r \$0/on;
#X obj 284 270 sel 0;
#X obj 15 9 loadbang;
#X obj 15 31 t b b;
#X msg 42 53 0;
#X obj 42 75 s \$0/on;
#X obj 15 97 delay 1000;
#X obj 15 149 t b b;
#N canvas 2 50 450 300 average 0;
#X obj 9 13 inlet;
#X obj 28 112 tabwrite \$0/ring;
#X obj 48 56 f;
#X obj 78 56 + 1;
#X obj 9 35 t b f b;
#X obj 9 138 array sum \$0/ring;
#X obj 9 182 outlet;
#X obj 48 78 mod 32;
#X obj 9 160 / 32;
#X obj 215 28 array define \$0/ring 32;
#X connect 0 0 4 0;
#X connect 2 0 3 0;
#X connect 2 0 7 0;
#X connect 3 0 2 1;
#X connect 4 0 5 0;
#X connect 4 1 1 0;
#X connect 4 2 2 0;
#X connect 5 0 8 0;
#X connect 7 0 1 1;
#X connect 8 0 6 0;
#X restore 334 270 pd average 32;
#X obj 319 341 t f f;
#X obj 319 389 outlet;
#X obj 346 364 print latency calculated;
#X obj 42 170 print latency calculation start;
#X obj 26 121 inlet;
#X connect 0 0 2 0;
#X connect 1 0 4 0;
#X connect 2 0 1 0;
#X connect 2 1 1 1;
#X connect 3 0 7 1;
#X connect 3 0 8 1;
#X connect 4 0 13 0;
#X connect 4 1 5 0;
#X connect 4 2 7 0;
#X connect 4 3 3 1;
#X connect 5 0 6 0;
#X connect 6 0 9 0;
#X connect 7 0 3 0;
#X connect 8 0 30 0;
#X connect 9 0 10 0;
#X connect 9 1 8 0;
#X connect 10 0 7 0;
#X connect 12 0 20 0;
#X connect 12 1 17 0;
#X connect 14 0 11 0;
#X connect 15 0 16 0;
#X connect 17 0 18 0;
#X connect 19 0 21 1;
#X connect 20 0 15 0;
#X connect 21 0 31 0;
#X connect 22 0 23 0;
#X connect 23 0 21 0;
#X connect 24 0 25 0;
#X connect 25 0 28 0;
#X connect 25 1 26 0;
#X connect 26 0 27 0;
#X connect 28 0 29 0;
#X connect 29 0 12 0;
#X connect 29 1 34 0;
#X connect 30 0 19 0;
#X connect 31 0 32 0;
#X connect 31 1 33 0;
#X connect 35 0 29 0;
#X restore 128 113 pd latency-calculator;
#X obj 13 14 inlet;
#X obj 13 259 outlet;
#X obj 13 36 route tick state;
#N canvas 2 48 450 300 get-bpm 1;
#X obj 16 11 inlet;
#X obj 16 33 t a a;
#X obj 385 267 outlet;
#X obj 11 269 outlet;
#X obj 16 95 list split 1;
#X obj 50 117 list trim;
#X obj 50 139 route /BPM;
#X obj 50 161 expr 60000 / $f1;
#X connect 0 0 1 0;
#X connect 1 0 4 0;
#X connect 1 1 2 0;
#X connect 4 1 5 0;
#X connect 5 0 6 0;
#X connect 6 0 7 0;
#X connect 7 0 3 0;
#X restore 59 58 pd get-bpm;
#X obj 13 172 list prepend tick;
#X obj 13 194 list trim;
#N canvas 2 48 450 398 compensate 1;
#X obj 14 11 inlet;
#X obj 105 11 inlet;
#X obj 195 13 inlet;
#X obj 14 342 outlet;
#X obj 14 320 pipe 0;
#X obj 195 58 - 0;
#X obj 14 298 - 0;
#X obj 195 35 t b f;
#X obj 105 33 t f f;
#X obj 105 145 /;
#X obj 105 167 int;
#X obj 246 102 print forward latency delay;
#X obj 105 271 print latency beats behind;
#X obj 195 80 t b f f f;
#X obj 105 189 * -1;
#X connect 0 0 6 0;
#X connect 1 0 8 0;
#X connect 2 0 7 0;
#X connect 4 0 3 0;
#X connect 5 0 13 0;
#X connect 6 0 4 0;
#X connect 7 0 5 0;
#X connect 7 1 5 1;
#X connect 8 0 9 0;
#X connect 8 1 5 0;
#X connect 9 0 10 0;
#X connect 10 0 14 0;
#X connect 13 0 9 0;
#X connect 13 1 9 1;
#X connect 13 2 4 1;
#X connect 13 3 11 0;
#X connect 14 0 6 1;
#X connect 14 0 12 0;
#X restore 13 144 pd compensate;
#X msg 128 86 bang;
#X connect 0 0 7 2;
#X connect 1 0 3 0;
#X connect 3 0 7 0;
#X connect 3 1 4 0;
#X connect 3 2 2 0;
#X connect 4 0 7 1;
#X connect 4 1 2 0;
#X connect 5 0 6 0;
#X connect 6 0 2 0;
#X connect 7 0 5 0;
#X connect 8 0 0 0;
