#N canvas 252 58 518 789 10;
#X msg 47 150 set-state /foo/bar mystuff goes here 3.14 12;
#X msg 57 220 send /to/you a bunch of 123 data;
#X floatatom 36 632 7 0 0 0 tick - -, f 7;
#X floatatom 85 652 7 0 0 0 node-id - -, f 7;
#X obj 185 706 print node joined;
#X obj 235 685 print node left;
#X obj 135 727 print node list;
#X msg 72 270 get-node-id;
#X msg 72 326 get-node-list;
#X msg 90 482 get-state /foo/bar;
#X msg 90 507 get-state /BPM;
#X text 70 250 get our node id;
#X text 71 294 get the list of connected node ids, f 19;
#X obj 285 664 print got message;
#X obj 335 643 print got state update;
#X text 36 71 ask the network to set the value of a particular key/address.
/BPM is a special key \, the value of which is used for the BPM of
the metronome.;
#X msg 36 119 set-state /BPM 145;
#X obj 85 748 print node-id;
#X msg 90 530 get-state /key/0;
#X obj 385 622 print init event;
#X obj 36 600 route tick node-id node-list joined left message state
init-event, f 67;
#X msg 92 401 set-state /myslider \$1;
#X obj 95 379 hsl 128 15 0 127 0 0 empty empty empty -2 -8 0 10 -262144
-1 -1 4300 0;
#X text 323 150 <- set a state;
#X obj 36 568 syncjams \$0/syncer \, bpm 180 \, namespace syncjams
\, port 23232;
#X obj 362 749 s \$0/syncer;
#X msg 362 726 send /to/you hello;
#X text 359 706 use named receiver;
#X text 89 436 get a network-agreed state previously set by us or some
other node, f 24;
#X text 36 6 network-syncronised metronome \, state dictionary \, and
data transport for easy collaboration and jamming with electronic music
software.;
#X text 36 49 see also: syncjams-gui-connector;
#X obj 85 679 syncjams-id-symbol;
#X symbolatom 85 701 10 0 0 0 id-symbol-> - -, f 10;
#X text 55 185 send a one-shot ephemeral message to the network.,
f 33;
#X obj 378 277 hsl 128 15 0 127 0 0 /s/1 /s/1/r /s/1 -2 -8 0 10 -262144
-1 -1 7600 0;
#X text 90 359 share a slider's state., f 33;
#X text 248 280 GUI sync helper;
#X obj 241 303 syncjams-gui-connector \$0/syncer /s/1 /s/1/r;
#X connect 0 0 24 0;
#X connect 1 0 24 0;
#X connect 3 0 31 0;
#X connect 7 0 24 0;
#X connect 8 0 24 0;
#X connect 9 0 24 0;
#X connect 10 0 24 0;
#X connect 16 0 24 0;
#X connect 18 0 24 0;
#X connect 20 0 2 0;
#X connect 20 1 3 0;
#X connect 20 2 6 0;
#X connect 20 3 4 0;
#X connect 20 4 5 0;
#X connect 20 5 13 0;
#X connect 20 6 14 0;
#X connect 20 7 19 0;
#X connect 21 0 24 0;
#X connect 22 0 21 0;
#X connect 24 0 20 0;
#X connect 26 0 25 0;
#X connect 31 0 32 0;
#X connect 32 0 17 0;
