#N canvas 579 178 481 405 10;
#X obj 159 166 syncjams-latency-compensator;
#X msg 159 36 set-state /BPM 145;
#X obj 25 286 syncjams;
#X obj 25 308 route tick;
#X msg 173 64 set-state /BPM 180;
#X text 18 10 Compensate for audio latency in SyncJams metronome.;
#X obj 324 145 r nudge;
#X obj 159 95 syncjams \$0/syncer;
#X obj 159 187 syncjams-tick;
#X obj 237 245 hsl 128 16 0 16 0 0 empty empty tick 2 -8 0 10 -262144
-1 -1 2381 1;
#X obj 237 285 hsl 128 16 0 16 0 0 empty \$0/synctick empty -2 -8 0
10 -262144 -1 -1 2381 1;
#X obj 234 209 mod 16;
#X obj 25 330 mod 16;
#X obj 25 352 s \$0/synctick;
#X text 24 39 allow the user to "nudge" the beat by some amount of
milliseconds to account for audio latency., f 15;
#X text 279 94 <- syncjams instance to be compensated., f 20;
#X obj 27 157 nbx 3 16 0 500 0 0 nudge empty nudge 0 -8 0 10 -260097
-1 -1 0 256;
#X text 377 145 <- user latency nudge goes in here., f 13;
#X text 99 286 <- other instance -> (tick uncompnesated), f 21;
#X connect 0 0 8 0;
#X connect 1 0 7 0;
#X connect 2 0 3 0;
#X connect 3 0 12 0;
#X connect 4 0 7 0;
#X connect 6 0 0 1;
#X connect 7 0 0 0;
#X connect 8 2 11 0;
#X connect 11 0 9 0;
#X connect 12 0 13 0;
