#N canvas 811 100 450 300 10;
#X obj 13 14 inlet;
#X obj 13 259 outlet;
#X obj 13 36 route tick state;
#N canvas 2 48 450 300 get-bpm 0;
#X obj 16 11 inlet;
#X obj 16 33 t a a;
#X obj 385 267 outlet;
#X obj 11 269 outlet;
#X obj 16 95 list split 1;
#X obj 50 117 list trim;
#X obj 50 139 route /BPM;
#X obj 50 161 expr 60000 / $f1;
#X connect 0 0 1 0;
#X connect 1 0 4 0;
#X connect 1 1 2 0;
#X connect 4 1 5 0;
#X connect 5 0 6 0;
#X connect 6 0 7 0;
#X connect 7 0 3 0;
#X restore 59 58 pd get-bpm;
#X obj 13 172 list prepend tick;
#X obj 13 194 list trim;
#N canvas 2 48 450 398 compensate 0;
#X obj 14 11 inlet;
#X obj 105 11 inlet;
#X obj 195 13 inlet;
#X obj 14 342 outlet;
#X obj 14 320 pipe 0;
#X obj 195 58 - 0;
#X obj 14 298 - 0;
#X obj 195 35 t b f;
#X obj 105 33 t f f;
#X obj 105 145 /;
#X obj 105 167 int;
#X obj 246 102 print forward latency delay;
#X obj 105 271 print latency beats behind;
#X obj 195 80 t b f f f;
#X obj 105 189 * -1;
#X connect 0 0 6 0;
#X connect 1 0 8 0;
#X connect 2 0 7 0;
#X connect 4 0 3 0;
#X connect 5 0 13 0;
#X connect 6 0 4 0;
#X connect 7 0 5 0;
#X connect 7 1 5 1;
#X connect 8 0 9 0;
#X connect 8 1 5 0;
#X connect 9 0 10 0;
#X connect 10 0 14 0;
#X connect 13 0 9 0;
#X connect 13 1 9 1;
#X connect 13 2 4 1;
#X connect 13 3 11 0;
#X connect 14 0 6 1;
#X connect 14 0 12 0;
#X restore 13 144 pd compensate;
#X obj 188 56 inlet;
#X obj 145 12 loadbang;
#X obj 145 34 \$1;
#X obj 145 56 sel 0;
#X connect 0 0 2 0;
#X connect 2 0 6 0;
#X connect 2 1 3 0;
#X connect 2 2 1 0;
#X connect 3 0 6 1;
#X connect 3 1 1 0;
#X connect 4 0 5 0;
#X connect 5 0 1 0;
#X connect 6 0 4 0;
#X connect 7 0 6 2;
#X connect 8 0 9 0;
#X connect 9 0 10 0;
#X connect 10 1 6 2;
