#N canvas 372 176 609 477 10;
#X msg 168 357 seed \$1;
#X obj 168 379 t b a;
#X obj 402 140 * 10000;
#X text 407 91 startup time entropy;
#X text 131 102 network connection time entropy;
#X obj 122 145 netsend 1;
#X obj 122 167 sel 1;
#X obj 77 214 * 10000;
#X obj 77 241 print entropy-net;
#X obj 402 167 print entropy-startup;
#X obj 77 192 realtime;
#X obj 402 118 realtime;
#X msg 161 167 disconnect;
#X obj 122 21 inlet;
#X obj 168 426 outlet;
#X obj 267 336 loadbang;
#X msg 267 358 2;
#X obj 168 404 random 8.3886e+06;
#X obj 267 381 pow 23;
#X obj 122 42 t b b;
#X obj 168 283 t b f;
#X msg 122 122 disconnect \, connect 0.0.0.0 13142;
#X obj 168 307 101477;
#X obj 70 379 print uid-seed;
#X obj 168 330 *;
#X connect 0 0 1 0;
#X connect 1 0 17 0;
#X connect 1 1 17 0;
#X connect 2 0 9 0;
#X connect 2 0 20 0;
#X connect 5 0 6 0;
#X connect 6 0 12 0;
#X connect 6 0 10 1;
#X connect 7 0 8 0;
#X connect 7 0 22 0;
#X connect 10 0 7 0;
#X connect 11 0 2 0;
#X connect 12 0 5 0;
#X connect 13 0 19 0;
#X connect 15 0 16 0;
#X connect 16 0 18 0;
#X connect 17 0 14 0;
#X connect 18 0 17 1;
#X connect 19 0 21 0;
#X connect 19 1 11 1;
#X connect 20 0 22 0;
#X connect 20 1 24 1;
#X connect 21 0 5 0;
#X connect 22 0 24 0;
#X connect 24 0 0 0;
#X connect 24 0 23 0;
